<?xml version="1.0" standalone="no"?>
<!DOCTYPE svg PUBLIC "-//W3C//DTD SVG 20010904//EN"
 "http://www.w3.org/TR/2001/REC-SVG-20010904/DTD/svg10.dtd">
<svg version="1.0" xmlns="http://www.w3.org/2000/svg"
 width="2048.000000pt" height="1117.000000pt" viewBox="0 0 2048.000000 1117.000000"
 preserveAspectRatio="xMidYMid meet">

<g transform="translate(0.000000,1117.000000) scale(0.100000,-0.100000)"
fill="#000000" stroke="none">
<path d="M5185 9273 c-454 -19 -904 -132 -1278 -320 -481 -241 -893 -618
-1151 -1052 -383 -645 -550 -1533 -440 -2336 60 -435 207 -907 382 -1222 142
-254 190 -323 386 -547 421 -482 986 -811 1640 -956 192 -42 339 -61 534 -67
l174 -6 69 69 c64 63 209 226 209 235 0 2 -56 2 -125 0 -255 -7 -491 26 -717
100 -228 75 -369 141 -533 246 -242 157 -397 295 -558 496 -234 290 -393 598
-497 956 -171 594 -218 1233 -134 1856 34 257 71 431 139 647 139 446 322 770
599 1057 371 383 888 603 1421 605 776 2 1538 -407 1901 -1020 79 -134 160
-303 208 -434 25 -69 60 -165 78 -215 l33 -90 60 -3 c98 -5 99 -3 81 158 -30
265 -66 568 -91 755 -13 105 -29 235 -36 290 -6 55 -15 110 -20 122 -10 27
-47 51 -268 171 -576 313 -1088 464 -1711 502 -158 9 -197 10 -355 3z"/>
<path d="M7726 5348 c-4 -18 -22 -132 -41 -253 -62 -388 -130 -615 -265 -886
-120 -238 -262 -433 -442 -604 -128 -122 -273 -219 -468 -314 l-159 -77 -82
-125 c-45 -68 -104 -153 -131 -187 -27 -35 -48 -66 -45 -68 9 -10 217 47 359
97 372 133 661 312 929 579 180 180 326 383 400 558 30 70 33 90 40 222 7 139
39 916 42 1030 l2 55 -67 3 -67 3 -5 -33z"/>
</g>
</svg>
